<svg xmlns="http://www.w3.org/2000/svg" xmlns:xlink="http://www.w3.org/1999/xlink" width="77" height="68" viewBox="0 0 77 68">
  <metadata><?xpacket begin="﻿" id="W5M0MpCehiHzreSzNTczkc9d"?>
<x:xmpmeta xmlns:x="adobe:ns:meta/" x:xmptk="Adobe XMP Core 5.6-c138 79.159824, 2016/09/14-01:09:01        ">
   <rdf:RDF xmlns:rdf="http://www.w3.org/1999/02/22-rdf-syntax-ns#">
      <rdf:Description rdf:about=""/>
   </rdf:RDF>
</x:xmpmeta>
                                                                                                    
                                                                                                    
                                                                                                    
                                                                                                    
                                                                                                    
                                                                                                    
                                                                                                    
                                                                                                    
                                                                                                    
                                                                                                    
                                                                                                    
                                                                                                    
                                                                                                    
                                                                                                    
                                                                                                    
                                                                                                    
                                                                                                    
                                                                                                    
                                                                                                    
                                                                                                    
                           
<?xpacket end="w"?></metadata>
<defs>
    <style>
      .cls-1 {
        fill: #fff;
        fill-rule: evenodd;
        filter: url(#filter);
      }
    </style>
    <filter id="filter" x="409" y="259" width="77" height="68" filterUnits="userSpaceOnUse">
      <feOffset result="offset" dy="1" in="SourceAlpha"/>
      <feGaussianBlur result="blur" stdDeviation="3.162"/>
      <feFlood result="flood" flood-color="#fff7a1" flood-opacity="0.48"/>
      <feComposite result="composite" operator="in" in2="blur"/>
      <feBlend result="blend" in="SourceGraphic"/>
    </filter>
  </defs>
  <path id="Фигура_1" data-name="Фигура 1" class="cls-1" d="M472.426,308.723h-17.2l0.7,5.575h2.882a0.851,0.851,0,0,1,0,1.7H435.2a0.851,0.851,0,0,1,0-1.7h2.882l0.7-5.575h-17.2a3.581,3.581,0,0,1-3.574-3.58V270.579A3.581,3.581,0,0,1,421.574,267h50.852A3.581,3.581,0,0,1,476,270.579v34.564A3.581,3.581,0,0,1,472.426,308.723ZM454.21,314.3l-0.695-5.575h-3.127l-0.307,1.229a3.175,3.175,0,0,1-6.162,0l-0.307-1.229h-3.127L439.79,314.3h14.42Zm-5.574-5.575h-3.272l0.2,0.816a1.476,1.476,0,0,0,2.865,0ZM474.3,270.579a1.878,1.878,0,0,0-1.875-1.877H421.574a1.878,1.878,0,0,0-1.875,1.877v34.564a1.878,1.878,0,0,0,1.875,1.878h50.852a1.878,1.878,0,0,0,1.875-1.878V270.579Zm-2.783,34.506H427.93a0.851,0.851,0,0,1,0-1.7h42.738V272.34H469.7a0.851,0.851,0,0,1,0-1.7h1.816a0.851,0.851,0,0,1,.85.851v32.745A0.851,0.851,0,0,1,471.518,305.085Zm-35.232-25.764a0.061,0.061,0,0,0-.024-0.033l-2.446-1.633a0.851,0.851,0,0,1,.942-1.417l2.447,1.634a1.765,1.765,0,0,1,.706.952h0.047l19.978,0.91a0.85,0.85,0,0,1,.794,1.017L457.3,287.9a3.567,3.567,0,0,1-3.087,2.853l-11.938,1.407a2.647,2.647,0,0,1-.982-0.066l-1.051,2.1a0.053,0.053,0,0,0,0,.057,0.051,0.051,0,0,0,.05.028h15.784a0.85,0.85,0,0,1,.57,1.481,2.666,2.666,0,1,1-4.87.221h-7.746a2.641,2.641,0,0,1,.183.968,2.666,2.666,0,1,1-4.98-1.323,1.764,1.764,0,0,1-.513-2.193l1.14-2.284a2.705,2.705,0,0,1-.463-0.911Zm17.979,18.6a0.968,0.968,0,1,0-.967-0.968A0.968,0.968,0,0,0,454.265,297.925Zm-12.713,0a0.968,0.968,0,1,0-.967-0.968A0.968,0.968,0,0,0,441.552,297.925Zm14.74-13.643,0.578-2.892-3.068-.14-0.274,3.032h2.764Zm-2.276,4.785a1.872,1.872,0,0,0,1.62-1.5l0.316-1.587h-2.578l-0.288,3.193Zm-5.258.62,2.6-.307,0.307-3.4h-2.91v3.7Zm0-5.405h3.064l0.281-3.109-3.345-.152v3.261Zm-3.685,5.839,1.986-.234v-3.9h-2.668Zm-0.962-5.839h2.948v-3.339l-3.524-.16Zm-3.075,5.5a0.963,0.963,0,0,0,1.042.7l1.305-.154-0.714-4.336h-2.715Zm1.353-5.5L441.8,280.7l-3.4-.155,1.065,3.733h2.921Zm23.68-11.942H423.331v31.043H424.3a0.851,0.851,0,0,1,0,1.7h-1.816a0.85,0.85,0,0,1-.85-0.851V271.489a0.85,0.85,0,0,1,.85-0.851h43.587A0.851,0.851,0,0,1,466.069,272.34Z" transform="translate(-409 -259)"/>
</svg>
