<svg xmlns="http://www.w3.org/2000/svg" width="58" height="49" viewBox="0 0 58 49">
  <metadata><?xpacket begin="﻿" id="W5M0MpCehiHzreSzNTczkc9d"?>
<x:xmpmeta xmlns:x="adobe:ns:meta/" x:xmptk="Adobe XMP Core 5.6-c138 79.159824, 2016/09/14-01:09:01        ">
   <rdf:RDF xmlns:rdf="http://www.w3.org/1999/02/22-rdf-syntax-ns#">
      <rdf:Description rdf:about=""/>
   </rdf:RDF>
</x:xmpmeta>
                                                                                                    
                                                                                                    
                                                                                                    
                                                                                                    
                                                                                                    
                                                                                                    
                                                                                                    
                                                                                                    
                                                                                                    
                                                                                                    
                                                                                                    
                                                                                                    
                                                                                                    
                                                                                                    
                                                                                                    
                                                                                                    
                                                                                                    
                                                                                                    
                                                                                                    
                                                                                                    
                           
<?xpacket end="w"?></metadata>
<defs>
    <style>
      .cls-1 {
        fill: #fff;
        fill-rule: evenodd;
      }
    </style>
  </defs>
  <path id="Фигура_2" data-name="Фигура 2" class="cls-1" d="M916.426,308.723h-17.2l0.7,5.575h2.882a0.851,0.851,0,0,1,0,1.7H879.2a0.851,0.851,0,0,1,0-1.7h2.882l0.7-5.575h-17.2a3.581,3.581,0,0,1-3.574-3.58V270.579A3.581,3.581,0,0,1,865.574,267h50.852A3.581,3.581,0,0,1,920,270.579v34.564A3.581,3.581,0,0,1,916.426,308.723ZM898.21,314.3l-0.7-5.575h-3.127l-0.307,1.229a3.175,3.175,0,0,1-6.162,0l-0.307-1.229h-3.127l-0.7,5.575h14.42Zm-5.574-5.575h-3.272l0.2,0.816a1.476,1.476,0,0,0,2.865,0ZM918.3,270.579a1.878,1.878,0,0,0-1.875-1.877H865.574a1.878,1.878,0,0,0-1.875,1.877v34.564a1.878,1.878,0,0,0,1.875,1.878h50.852a1.878,1.878,0,0,0,1.875-1.878V270.579Zm-2.783,34.506H871.93a0.851,0.851,0,0,1,0-1.7h42.738V272.34H913.7a0.851,0.851,0,0,1,0-1.7h1.816a0.851,0.851,0,0,1,.85.851v32.745A0.851,0.851,0,0,1,915.518,305.085Zm-5.449-32.745H867.331v31.043H868.3a0.851,0.851,0,0,1,0,1.7h-1.816a0.85,0.85,0,0,1-.85-0.851V271.489a0.85,0.85,0,0,1,.85-0.851h43.587A0.851,0.851,0,0,1,910.069,272.34Zm-34.487,26.232a0.781,0.781,0,0,1-.782.779h-3.909a0.781,0.781,0,0,1-.782-0.779v-3.893a0.78,0.78,0,0,1,.782-0.779H874.8a0.781,0.781,0,0,1,.782.779v3.893Zm-1.564-3.115h-2.345v2.337h2.345v-2.337Zm1.564-2.959a0.781,0.781,0,0,1-.782.779h-3.909a0.781,0.781,0,0,1-.782-0.779v-3.893a0.781,0.781,0,0,1,.782-0.779H874.8a0.781,0.781,0,0,1,.782.779V292.5Zm-1.564-3.115h-2.345v2.337h2.345v-2.337Zm0.782-8.254h-3.909a0.78,0.78,0,0,1-.782-0.778v-3.894a0.78,0.78,0,0,1,.782-0.778H874.8a0.78,0.78,0,0,1,.782.778v3.894A0.78,0.78,0,0,1,874.8,281.129Zm-0.782-3.893h-2.345v2.336h2.345v-2.336Zm1.564,9.188a0.78,0.78,0,0,1-.782.779h-3.909a0.78,0.78,0,0,1-.782-0.779v-3.893a0.781,0.781,0,0,1,.782-0.779H874.8a0.781,0.781,0,0,1,.782.779v3.893Zm-1.564-3.114h-2.345v2.336h2.345V283.31Zm33.9-5.236a0.78,0.78,0,0,1,.782-0.779h3.041a0.78,0.78,0,0,1,.782.779v9.441a0.78,0.78,0,0,1-.782.778H908.7a0.78,0.78,0,0,1-.782-0.778v-9.441Zm1.564,8.662h1.477v-7.884H909.48v7.884Zm-0.782,3.171h3.041a0.779,0.779,0,1,1,0,1.557H908.7A0.779,0.779,0,1,1,908.7,289.907Zm3.041,6.341a0.779,0.779,0,1,1,0,1.558H908.7a0.779,0.779,0,1,1,0-1.558h3.041Zm-3.041-3.17h3.041a0.779,0.779,0,1,1,0,1.557H908.7A0.779,0.779,0,1,1,908.7,293.078Zm-12.473-16.16v6.117h6.888a0.781,0.781,0,0,1,.782.779v15.278a0.781,0.781,0,0,1-.782.779h-15.34a0.781,0.781,0,0,1-.782-0.779v-6.118H880.1a0.78,0.78,0,0,1-.782-0.778V276.918a0.781,0.781,0,0,1,.782-0.779h15.34A0.781,0.781,0,0,1,896.225,276.918Zm-7.67,14.5h6.106v-6.825h-6.106v6.825Zm6.106-13.72H880.885v13.72h6.106v-7.6a0.781,0.781,0,0,1,.782-0.779h6.888V277.7Zm-6.106,15.277v5.339h13.776V284.592h-6.106v7.6a0.78,0.78,0,0,1-.782.778h-6.888Z" transform="translate(-862 -267)"/>
</svg>
