<svg xmlns="http://www.w3.org/2000/svg" width="58" height="50" viewBox="0 0 58 50">
  <metadata><?xpacket begin="﻿" id="W5M0MpCehiHzreSzNTczkc9d"?>
<x:xmpmeta xmlns:x="adobe:ns:meta/" x:xmptk="Adobe XMP Core 5.6-c138 79.159824, 2016/09/14-01:09:01        ">
   <rdf:RDF xmlns:rdf="http://www.w3.org/1999/02/22-rdf-syntax-ns#">
      <rdf:Description rdf:about=""/>
   </rdf:RDF>
</x:xmpmeta>
                                                                                                    
                                                                                                    
                                                                                                    
                                                                                                    
                                                                                                    
                                                                                                    
                                                                                                    
                                                                                                    
                                                                                                    
                                                                                                    
                                                                                                    
                                                                                                    
                                                                                                    
                                                                                                    
                                                                                                    
                                                                                                    
                                                                                                    
                                                                                                    
                                                                                                    
                                                                                                    
                           
<?xpacket end="w"?></metadata>
<defs>
    <style>
      .cls-1 {
        fill: #fff;
        fill-rule: evenodd;
      }
    </style>
  </defs>
  <path id="Фигура_3_копия" data-name="Фигура 3 копия" class="cls-1" d="M1303.43,309.575h-17.2l0.69,5.688h2.88a0.869,0.869,0,0,1,0,1.737h-23.61a0.869,0.869,0,0,1,0-1.737h2.89l0.69-5.688h-17.2a3.616,3.616,0,0,1-3.57-3.653V270.653a3.615,3.615,0,0,1,3.57-3.653h50.86a3.615,3.615,0,0,1,3.57,3.653v35.269A3.616,3.616,0,0,1,1303.43,309.575Zm-18.22,5.688-0.7-5.688h-3.12l-0.31,1.254a3.159,3.159,0,0,1-6.16,0l-0.31-1.254h-3.12l-0.7,5.688h14.42Zm-5.57-5.688h-3.28l0.21,0.832a1.466,1.466,0,0,0,2.86,0Zm25.66-38.922a1.9,1.9,0,0,0-1.87-1.916h-50.86a1.9,1.9,0,0,0-1.87,1.916v35.269a1.9,1.9,0,0,0,1.87,1.916h50.86a1.9,1.9,0,0,0,1.87-1.916V270.653Zm-2.78,35.209h-43.59a0.869,0.869,0,0,1,0-1.737h42.74V272.449h-0.97a0.868,0.868,0,0,1,0-1.736h1.82a0.858,0.858,0,0,1,.85.868v33.413A0.858,0.858,0,0,1,1302.52,305.862Zm-5.45-33.413h-42.74v31.676h0.97a0.869,0.869,0,0,1,0,1.737h-1.82a0.858,0.858,0,0,1-.85-0.868V271.581a0.858,0.858,0,0,1,.85-0.868h43.59A0.868,0.868,0,0,1,1297.07,272.449Zm-9.93,27.04h12.3V301.4h-12.3v-1.911Zm0-3.822h12.3v1.911h-12.3v-1.911Zm0-3.822h12.3v1.911h-12.3v-1.911Zm-0.94-13.378h13.24v11.467H1286.2V278.467Zm1.89,9.555h9.45v-7.644h-9.45v7.644Zm-17.02-9.555h13.24v11.467h-13.24V278.467Zm1.89,9.555h9.46v-7.644h-9.46v7.644Zm-17.02-9.555h13.24v11.467h-13.24V278.467Zm1.89,9.555h9.46v-7.644h-9.46v7.644Zm4.73-11.466a0.956,0.956,0,1,1,.95-0.956A0.956,0.956,0,0,1,1262.56,276.556Zm-2.84,0a0.956,0.956,0,1,1,.95-0.956A0.948,0.948,0,0,1,1259.72,276.556Zm-2.83,0a0.956,0.956,0,1,1,.94-0.956A0.95,0.95,0,0,1,1256.89,276.556Zm27.42,17.2h-28.37v-1.911h28.37v1.911Zm0,3.822h-28.37v-1.911h28.37v1.911Zm0,3.822h-28.37v-1.911h28.37V301.4Z" transform="translate(-1249 -267)"/>
</svg>
